<svg width="370" height="419" viewBox="0 0 370 419" fill="none" xmlns="http://www.w3.org/2000/svg">
<path d="M357 301.553V117.447C356.986 114.788 356.294 112.18 354.993 109.885C353.692 107.59 351.828 105.69 349.59 104.377L190.548 11.9512C188.405 10.673 185.975 10 183.5 10C181.025 10 178.595 10.673 176.452 11.9512L17.4099 104.377C15.1716 105.69 13.308 107.59 12.007 109.885C10.7061 112.18 10.0138 114.788 10 117.447V301.553C10.0138 304.212 10.7061 306.82 12.007 309.115C13.308 311.41 15.1716 313.31 17.4099 314.623L176.452 407.049C178.595 408.327 181.025 409 183.5 409C185.975 409 188.405 408.327 190.548 407.049L349.59 314.623C351.828 313.31 353.692 311.41 354.993 309.115C356.294 306.82 356.986 304.212 357 301.553Z" stroke="white" stroke-width="20" stroke-linecap="round" stroke-linejoin="round"/>
<path d="M278 259V161.9L102 62" stroke="white" stroke-width="20" stroke-linecap="round" stroke-linejoin="round"/>
<path d="M360 116L188.145 214L13 116" stroke="white" stroke-width="20" stroke-linecap="round" stroke-linejoin="round"/>
<path d="M187 213V409" stroke="white" stroke-width="20" stroke-linecap="round" stroke-linejoin="round"/>
</svg>
