<svg width="218" height="157" viewBox="0 0 218 157" fill="none" xmlns="http://www.w3.org/2000/svg">
<path d="M210.914 44.4804C210.852 35.7024 208.172 27.1426 203.216 19.8971C198.26 12.6516 191.254 7.0502 183.096 3.81017C174.937 0.570134 165.997 -0.161083 157.421 1.71015C148.844 3.58138 141.022 7.96989 134.954 14.3137H83.0456C76.9782 7.96989 69.1553 3.58138 60.5788 1.71015C52.0023 -0.161083 43.0624 0.570134 34.9039 3.81017C26.7455 7.0502 19.7397 12.6516 14.7838 19.8971C9.82785 27.1426 7.14728 35.7024 7.08532 44.4804C2.84633 71.6622 0.575657 99.1147 0.291016 126.624C0.291016 143.066 7.08532 153.801 20.1304 156.247C22.5451 156.741 25.0034 156.992 27.4682 156.994C33.3 157.102 39.0045 155.283 43.6971 151.819C48.3897 148.355 51.8082 143.439 53.4225 137.834C56.0722 130.36 60.8282 120.033 63.7498 113.782C67.3613 115.426 71.289 116.259 75.2569 116.223C79.2248 116.187 83.1366 115.282 86.7176 113.573C90.2985 111.863 93.4616 109.39 95.9847 106.328C98.5078 103.265 100.33 99.6873 101.322 95.8454H116.677C117.672 99.6785 119.492 103.248 122.011 106.304C124.529 109.36 127.685 111.828 131.258 113.537C134.83 115.246 138.733 116.153 142.693 116.195C146.653 116.238 150.574 115.414 154.182 113.782C157.103 119.965 161.86 130.292 164.509 137.834C166.126 143.451 169.555 148.375 174.262 151.84C178.968 155.305 184.688 157.117 190.531 156.994C193.019 156.997 195.5 156.746 197.937 156.247C210.914 153.597 217.709 143.066 217.709 126.624C217.424 99.1147 215.153 71.6622 210.914 44.4804ZM47.1038 135.592C46.3713 138.212 45.1219 140.658 43.4291 142.788C41.7363 144.917 39.6344 146.686 37.2473 147.99C34.8602 149.295 32.2362 150.108 29.5298 150.383C26.8235 150.657 24.0896 150.387 21.4892 149.588C9.59921 147.074 7.08532 135.728 7.08532 126.624C7.24844 105.542 8.65503 84.4884 11.2978 63.5724C14.5968 70.6698 19.7172 76.7665 26.138 81.2419C32.5588 85.7174 40.0506 88.4118 47.8511 89.0511C47.8638 93.1107 48.7859 97.1159 50.5495 100.772C52.3131 104.429 54.8735 107.644 58.0426 110.181C54.6454 117.112 49.8894 127.643 47.1038 135.592ZM75.0283 109.434C69.6224 109.434 64.438 107.286 60.6154 103.464C56.7929 99.6414 54.6454 94.4569 54.6454 89.0511C54.5729 88.0786 54.5729 87.102 54.6454 86.1295V82.2568H51.2483C42.9159 82.257 34.8224 79.4724 28.254 74.3454C21.6857 69.2184 17.0193 62.0433 14.9964 53.9601C12.9736 45.877 13.7103 37.3496 17.0895 29.7332C20.4687 22.1168 26.2966 15.8482 33.6469 11.9237C40.9973 7.99927 49.4484 6.64402 57.6573 8.07335C65.8662 9.50268 73.3619 13.6346 78.9533 19.8125C84.5446 25.9903 87.9108 33.8597 88.5168 42.1701C89.1229 50.4804 86.9341 58.7549 82.2982 65.6787L80.1241 68.6682L83.725 70.3667C88.0664 72.2544 91.6152 75.5944 93.7626 79.8134C95.9099 84.0323 96.5217 88.8671 95.4931 93.488C94.4644 98.1089 91.8595 102.228 88.1252 105.137C84.391 108.047 79.7605 109.566 75.0283 109.434ZM102.206 89.0511C102.201 84.5278 101.068 80.0772 98.9089 76.1026C96.7495 72.1281 93.6324 68.7553 89.8399 66.2902C93.7389 59.3517 95.6843 51.4862 95.4689 43.5302C95.2536 35.5742 92.8856 27.8254 88.6169 21.108H129.383C125.072 27.8005 122.657 35.5364 122.394 43.4926C122.13 51.4488 124.029 59.3274 127.888 66.2902C124.146 68.7867 121.082 72.1732 118.971 76.1457C116.86 80.1183 115.769 84.5526 115.794 89.0511H102.206ZM122.588 89.0511C122.599 85.183 123.709 81.3976 125.791 78.1372C127.872 74.8768 130.838 72.276 134.343 70.6385L137.876 68.6682L135.701 65.4069C131.133 58.4531 129.016 50.1734 129.685 41.88C130.355 33.5867 133.774 25.7541 139.399 19.6235C145.024 13.4929 152.535 9.41506 160.74 8.03619C168.945 6.65732 177.376 8.05631 184.696 12.0114C192.016 15.9666 197.807 22.2516 201.151 29.8705C204.495 37.4894 205.2 46.0063 203.155 54.0715C201.111 62.1367 196.433 69.2888 189.863 74.3944C183.293 79.4999 175.208 82.2669 166.887 82.2568H162.539L163.354 86.1295C163.427 87.102 163.427 88.0786 163.354 89.0511C163.354 94.4569 161.207 99.6414 157.384 103.464C153.562 107.286 148.377 109.434 142.971 109.434C137.565 109.434 132.381 107.286 128.558 103.464C124.736 99.6414 122.588 94.4569 122.588 89.0511ZM196.51 149.588C193.91 150.387 191.176 150.657 188.47 150.383C185.763 150.108 183.139 149.295 180.752 147.99C178.365 146.686 176.263 144.917 174.571 142.788C172.878 140.658 171.628 138.212 170.896 135.592C168.11 127.643 163.354 117.112 159.957 110.181C163.126 107.644 165.687 104.429 167.45 100.772C169.214 97.1159 170.136 93.1107 170.149 89.0511C177.937 88.4316 185.422 85.7602 191.843 81.3087C198.263 76.8572 203.39 70.7845 206.702 63.7083C209.338 84.5794 210.744 105.587 210.914 126.624C210.914 135.728 208.4 147.074 196.51 149.588Z" fill="white"/>
<path d="M61.4403 55.0794H75.0289V34.6965H61.4403V21.1079H41.0574V34.6965H27.4688V55.0794H41.0574V68.668H61.4403V55.0794ZM54.646 61.8737H47.8517V48.2851H34.2631V41.4908H47.8517V27.9022H54.646V41.4908H68.2346V48.2851H54.646V61.8737Z" fill="white"/>
<path d="M166.752 34.6965C168.768 34.6965 170.738 34.0988 172.414 32.9789C174.09 31.8591 175.396 30.2674 176.168 28.4052C176.939 26.5429 177.141 24.4937 176.748 22.5168C176.354 20.5399 175.384 18.7239 173.958 17.2986C172.533 15.8733 170.717 14.9027 168.74 14.5094C166.763 14.1162 164.714 14.318 162.852 15.0894C160.99 15.8607 159.398 17.167 158.278 18.843C157.158 20.519 156.561 22.4894 156.561 24.5051C156.561 27.208 157.634 29.8002 159.546 31.7115C161.457 33.6228 164.049 34.6965 166.752 34.6965ZM166.752 21.1079C167.424 21.1079 168.081 21.3071 168.639 21.6804C169.198 22.0537 169.633 22.5843 169.891 23.205C170.148 23.8258 170.215 24.5088 170.084 25.1678C169.953 25.8268 169.629 26.4321 169.154 26.9072C168.679 27.3823 168.074 27.7059 167.415 27.8369C166.756 27.968 166.073 27.9007 165.452 27.6436C164.831 27.3865 164.301 26.9511 163.927 26.3924C163.554 25.8338 163.355 25.1769 163.355 24.5051C163.355 23.6041 163.713 22.74 164.35 22.1029C164.987 21.4658 165.851 21.1079 166.752 21.1079Z" fill="white"/>
<path d="M166.752 75.4624C168.768 75.4624 170.738 74.8647 172.414 73.7448C174.09 72.625 175.396 71.0333 176.168 69.171C176.939 67.3088 177.141 65.2596 176.748 63.2827C176.354 61.3057 175.384 59.4898 173.958 58.0645C172.533 56.6392 170.717 55.6685 168.74 55.2753C166.763 54.8821 164.714 55.0839 162.852 55.8553C160.99 56.6266 159.398 57.9329 158.278 59.6089C157.158 61.2848 156.561 63.2552 156.561 65.2709C156.561 67.9739 157.634 70.5661 159.546 72.4774C161.457 74.3886 164.049 75.4624 166.752 75.4624ZM166.752 61.8738C167.424 61.8738 168.081 62.073 168.639 62.4463C169.198 62.8196 169.633 63.3501 169.891 63.9709C170.148 64.5916 170.215 65.2747 170.084 65.9337C169.953 66.5927 169.629 67.198 169.154 67.6731C168.679 68.1482 168.074 68.4717 167.415 68.6028C166.756 68.7339 166.073 68.6666 165.452 68.4095C164.831 68.1524 164.301 67.7169 163.927 67.1583C163.554 66.5996 163.355 65.9428 163.355 65.2709C163.355 64.3699 163.713 63.5059 164.35 62.8688C164.987 62.2317 165.851 61.8738 166.752 61.8738Z" fill="white"/>
<path d="M146.369 55.0794C148.385 55.0794 150.355 54.4817 152.031 53.3619C153.707 52.242 155.013 50.6503 155.785 48.7881C156.556 46.9258 156.758 44.8767 156.365 42.8997C155.972 40.9228 155.001 39.1068 153.576 37.6815C152.15 36.2562 150.334 35.2856 148.357 34.8924C146.38 34.4991 144.331 34.7009 142.469 35.4723C140.607 36.2437 139.015 37.55 137.895 39.2259C136.775 40.9019 136.178 42.8723 136.178 44.888C136.178 47.5909 137.251 50.1832 139.163 52.0944C141.074 54.0057 143.666 55.0794 146.369 55.0794ZM146.369 41.4908C147.041 41.4908 147.698 41.6901 148.257 42.0634C148.815 42.4366 149.251 42.9672 149.508 43.588C149.765 44.2087 149.832 44.8918 149.701 45.5507C149.57 46.2097 149.246 46.815 148.771 47.2901C148.296 47.7652 147.691 48.0888 147.032 48.2199C146.373 48.3509 145.69 48.2837 145.069 48.0265C144.448 47.7694 143.918 47.334 143.545 46.7753C143.171 46.2167 142.972 45.5599 142.972 44.888C142.972 43.987 143.33 43.1229 143.967 42.4858C144.604 41.8488 145.468 41.4908 146.369 41.4908Z" fill="white"/>
<path d="M187.135 55.0794C189.15 55.0794 191.121 54.4817 192.797 53.3619C194.473 52.242 195.779 50.6503 196.55 48.7881C197.322 46.9258 197.524 44.8767 197.13 42.8997C196.737 40.9228 195.767 39.1068 194.341 37.6815C192.916 36.2562 191.1 35.2856 189.123 34.8924C187.146 34.4991 185.097 34.7009 183.235 35.4723C181.372 36.2437 179.781 37.55 178.661 39.2259C177.541 40.9019 176.943 42.8723 176.943 44.888C176.943 47.5909 178.017 50.1832 179.928 52.0944C181.84 54.0057 184.432 55.0794 187.135 55.0794ZM187.135 41.4908C187.807 41.4908 188.464 41.6901 189.022 42.0634C189.581 42.4366 190.016 42.9672 190.273 43.588C190.53 44.2087 190.598 44.8918 190.467 45.5507C190.336 46.2097 190.012 46.815 189.537 47.2901C189.062 47.7652 188.457 48.0888 187.798 48.2199C187.139 48.3509 186.456 48.2837 185.835 48.0265C185.214 47.7694 184.683 47.334 184.31 46.7753C183.937 46.2167 183.738 45.5599 183.738 44.888C183.738 43.987 184.096 43.1229 184.733 42.4858C185.37 41.8488 186.234 41.4908 187.135 41.4908Z" fill="white"/>
<path d="M75.0281 75.4624C72.3405 75.4624 69.7133 76.2594 67.4786 77.7525C65.244 79.2456 63.5023 81.3679 62.4738 83.8509C61.4453 86.3339 61.1762 89.0661 61.7006 91.702C62.2249 94.3379 63.5191 96.7592 65.4195 98.6596C67.3199 100.56 69.7411 101.854 72.3771 102.379C75.013 102.903 77.7452 102.634 80.2282 101.605C82.7112 100.577 84.8334 98.8351 86.3266 96.6004C87.8197 94.3658 88.6167 91.7386 88.6167 89.051C88.6167 85.4471 87.185 81.9908 84.6367 79.4424C82.0883 76.8941 78.632 75.4624 75.0281 75.4624ZM75.0281 95.8453C73.6843 95.8453 72.3707 95.4468 71.2533 94.7003C70.136 93.9537 69.2652 92.8926 68.7509 91.6511C68.2367 90.4096 68.1022 89.0435 68.3643 87.7255C68.6265 86.4075 69.2736 85.1969 70.2238 84.2467C71.174 83.2965 72.3846 82.6494 73.7026 82.3873C75.0205 82.1251 76.3866 82.2596 77.6281 82.7739C78.8696 83.2881 79.9308 84.159 80.6773 85.2763C81.4239 86.3936 81.8224 87.7072 81.8224 89.051C81.8224 90.853 81.1065 92.5811 79.8324 93.8553C78.5582 95.1295 76.83 95.8453 75.0281 95.8453Z" fill="white"/>
<path d="M142.971 75.4624C140.284 75.4624 137.657 76.2594 135.422 77.7525C133.187 79.2456 131.446 81.3679 130.417 83.8509C129.389 86.3339 129.12 89.0661 129.644 91.702C130.168 94.3379 131.462 96.7592 133.363 98.6596C135.263 100.56 137.684 101.854 140.32 102.379C142.956 102.903 145.689 102.634 148.172 101.605C150.655 100.577 152.777 98.8351 154.27 96.6004C155.763 94.3658 156.56 91.7386 156.56 89.051C156.56 85.4471 155.128 81.9908 152.58 79.4424C150.032 76.8941 146.575 75.4624 142.971 75.4624ZM142.971 95.8453C141.628 95.8453 140.314 95.4468 139.197 94.7003C138.079 93.9537 137.209 92.8926 136.694 91.6511C136.18 90.4096 136.046 89.0435 136.308 87.7255C136.57 86.4075 137.217 85.1969 138.167 84.2467C139.117 83.2965 140.328 82.6494 141.646 82.3873C142.964 82.1251 144.33 82.2596 145.571 82.7739C146.813 83.2881 147.874 84.159 148.621 85.2763C149.367 86.3936 149.766 87.7072 149.766 89.051C149.766 90.853 149.05 92.5811 147.776 93.8553C146.502 95.1295 144.773 95.8453 142.971 95.8453Z" fill="white"/>
</svg>
