<svg width="347" height="347" viewBox="0 0 347 347" fill="none" xmlns="http://www.w3.org/2000/svg">
<path d="M60.725 347L286.275 347C319.812 347 347 319.812 347 286.275L347 60.725C347 27.1875 319.812 0 286.275 0L60.725 0C27.1875 0 0 27.1875 0 60.725L0 286.275C0 319.812 27.1875 347 60.725 347Z" fill="url(#paint0_radial_370_343)"/>
<path d="M238.562 303.625H108.438C91.1819 303.625 74.633 296.77 62.4314 284.569C50.2298 272.367 43.375 255.818 43.375 238.562V108.438C43.375 91.1819 50.2298 74.633 62.4314 62.4314C74.633 50.2298 91.1819 43.375 108.438 43.375H238.562C255.818 43.375 272.367 50.2298 284.569 62.4314C296.77 74.633 303.625 91.1819 303.625 108.438V238.562C303.625 255.818 296.77 272.367 284.569 284.569C272.367 296.77 255.818 303.625 238.562 303.625ZM108.438 69.4C98.0885 69.4143 88.1675 73.5318 80.8497 80.8497C73.5318 88.1675 69.4143 98.0885 69.4 108.438V238.562C69.4143 248.911 73.5318 258.832 80.8497 266.15C88.1675 273.468 98.0885 277.586 108.438 277.6H238.562C248.911 277.586 258.832 273.468 266.15 266.15C273.468 258.832 277.586 248.911 277.6 238.562V108.438C277.586 98.0885 273.468 88.1675 266.15 80.8497C258.832 73.5318 248.911 69.4143 238.562 69.4H108.438Z" fill="white"/>
<path d="M173.503 247.237C158.919 247.237 144.663 242.912 132.537 234.81C120.411 226.707 110.96 215.191 105.379 201.717C99.7976 188.244 98.3373 173.417 101.183 159.114C104.028 144.81 111.051 131.671 121.363 121.359C131.675 111.047 144.814 104.024 159.118 101.179C173.421 98.3334 188.248 99.7937 201.721 105.375C215.195 110.956 226.711 120.407 234.814 132.533C242.916 144.659 247.241 158.915 247.241 173.499C247.226 193.051 239.453 211.798 225.628 225.624C211.802 239.449 193.055 247.222 173.503 247.237ZM173.503 125.787C164.067 125.787 154.842 128.585 146.996 133.828C139.149 139.07 133.034 146.522 129.423 155.24C125.811 163.959 124.866 173.552 126.707 182.807C128.548 192.063 133.093 200.564 139.765 207.237C146.438 213.91 154.94 218.454 164.195 220.295C173.45 222.136 183.044 221.191 191.762 217.58C200.48 213.969 207.932 207.853 213.175 200.007C218.417 192.161 221.216 182.936 221.216 173.499C221.201 160.85 216.17 148.722 207.225 139.777C198.28 130.833 186.153 125.801 173.503 125.787Z" fill="white"/>
<path d="M247.231 117.113C254.418 117.113 260.244 111.287 260.244 104.1C260.244 96.9138 254.418 91.0879 247.231 91.0879C240.045 91.0879 234.219 96.9138 234.219 104.1C234.219 111.287 240.045 117.113 247.231 117.113Z" fill="white"/>
<defs>
<radialGradient id="paint0_radial_370_343" cx="0" cy="0" r="1" gradientUnits="userSpaceOnUse" gradientTransform="translate(-6.98065 339.952) rotate(180) scale(801.326)">
<stop stop-color="#F9ED32"/>
<stop offset="0.36" stop-color="#EE2A7B"/>
<stop offset="0.44" stop-color="#D22A8A"/>
<stop offset="0.6" stop-color="#8B2AB2"/>
<stop offset="0.83" stop-color="#1B2AF0"/>
<stop offset="0.88" stop-color="#002AFF"/>
</radialGradient>
</defs>
</svg>
