<svg width="355" height="349" viewBox="0 0 355 349" fill="none" xmlns="http://www.w3.org/2000/svg">
<line x1="10" x2="10" y2="97.4399" stroke="white" stroke-width="20"/>
<line x1="10" y1="125.28" x2="10" y2="222.719" stroke="white" stroke-width="20"/>
<line x1="10" y1="250.56" x2="10" y2="348" stroke="white" stroke-width="20"/>
<line x1="134.926" x2="134.926" y2="97.4399" stroke="white" stroke-width="20"/>
<line x1="134.926" y1="125.28" x2="134.926" y2="222.719" stroke="white" stroke-width="20"/>
<line x1="134.926" y1="250.56" x2="134.926" y2="348" stroke="white" stroke-width="20"/>
<line x1="259.852" x2="259.852" y2="97.4399" stroke="white" stroke-width="20"/>
<line x1="259.852" y1="125.28" x2="259.852" y2="222.719" stroke="white" stroke-width="20"/>
<line x1="259.852" y1="250.56" x2="259.852" y2="348" stroke="white" stroke-width="20"/>
<line x1="94.7695" x2="94.7695" y2="97.4399" stroke="white" stroke-width="20"/>
<line x1="94.7695" y1="250.56" x2="94.7695" y2="348" stroke="white" stroke-width="20"/>
<line x1="219.695" x2="219.695" y2="97.4399" stroke="white" stroke-width="20"/>
<line x1="219.695" y1="125.28" x2="219.695" y2="222.719" stroke="white" stroke-width="20"/>
<line x1="219.695" y1="250.56" x2="219.695" y2="348" stroke="white" stroke-width="20"/>
<line x1="344.609" x2="344.609" y2="97.4399" stroke="white" stroke-width="20"/>
<line x1="94.7695" y1="125.28" x2="94.7695" y2="222.72" stroke="white" stroke-width="20"/>
<line x1="344.609" y1="125.28" x2="344.609" y2="222.719" stroke="white" stroke-width="20"/>
<line x1="344.609" y1="250.56" x2="344.609" y2="348" stroke="white" stroke-width="20"/>
<line x1="98.1484" y1="10" x2="4.45618" y2="10" stroke="white" stroke-width="20"/>
<line x1="98.1484" y1="135.28" x2="4.45618" y2="135.28" stroke="white" stroke-width="20"/>
<line x1="98.1484" y1="260.56" x2="4.45618" y2="260.56" stroke="white" stroke-width="20"/>
<line x1="223.074" y1="10" x2="129.382" y2="10" stroke="white" stroke-width="20"/>
<line x1="223.074" y1="135.28" x2="129.382" y2="135.28" stroke="white" stroke-width="20"/>
<line x1="223.074" y1="260.56" x2="129.382" y2="260.56" stroke="white" stroke-width="20"/>
<line x1="348" y1="10" x2="254.308" y2="10" stroke="white" stroke-width="20"/>
<line x1="348" y1="135.28" x2="254.308" y2="135.28" stroke="white" stroke-width="20"/>
<line x1="348" y1="260.56" x2="254.308" y2="260.56" stroke="white" stroke-width="20"/>
<line x1="98.1484" y1="87.52" x2="4.45618" y2="87.52" stroke="white" stroke-width="20"/>
<line x1="98.1484" y1="212.8" x2="4.45618" y2="212.8" stroke="white" stroke-width="20"/>
<line x1="98.1484" y1="338.08" x2="4.45618" y2="338.08" stroke="white" stroke-width="20"/>
<line x1="223.074" y1="87.52" x2="129.382" y2="87.52" stroke="white" stroke-width="20"/>
<line x1="223.074" y1="212.8" x2="129.382" y2="212.8" stroke="white" stroke-width="20"/>
<line x1="223.074" y1="338.216" x2="129.382" y2="338.216" stroke="white" stroke-width="20"/>
<line x1="348" y1="87.52" x2="254.308" y2="87.52" stroke="white" stroke-width="20"/>
<line x1="348" y1="212.8" x2="254.308" y2="212.8" stroke="white" stroke-width="20"/>
<line x1="348" y1="338.08" x2="254.308" y2="338.08" stroke="white" stroke-width="20"/>
</svg>
