<svg width="338" height="258" viewBox="0 0 338 258" fill="none" xmlns="http://www.w3.org/2000/svg">
<path d="M20.7673 223.35L146.551 257.029C148.966 257.693 151.44 257.995 153.855 257.995C158.683 257.995 163.512 256.727 167.797 254.252C174.255 250.51 178.903 244.475 180.834 237.232L186.266 216.952C191.698 224.074 198.941 228.299 208.176 228.299C213.004 228.299 217.833 227.031 222.179 224.496L324.001 165.709C337.34 157.983 341.987 140.842 334.262 127.442L269.136 14.6955C265.394 8.17693 259.359 3.5898 252.116 1.59801C244.933 -0.33341 237.328 0.692661 230.87 4.43479L129.048 63.2225C125.849 65.0332 123.314 67.6286 121.081 70.4654L65.6729 55.6175C50.7648 51.634 35.3737 60.5064 31.3902 75.4146L0.97023 188.946C-0.961194 196.189 0.00451817 203.734 3.74665 210.192C7.48879 216.65 13.5245 221.297 20.7673 223.229V223.35ZM135.084 73.7246L236.906 14.9369C240.588 12.8244 244.873 12.2209 248.977 13.3073C253.081 14.3937 256.522 17.0494 258.634 20.7312L323.759 133.478C328.166 141.083 325.51 150.861 317.905 155.267L216.083 214.055C208.478 218.461 198.76 215.926 194.354 208.2L190.431 201.38L197.674 174.279C200.209 177.961 203.83 180.858 208.417 182.065C210.047 182.488 211.677 182.729 213.367 182.729C221.998 182.729 229.603 176.935 231.836 168.606C232.258 166.976 232.5 165.347 232.5 163.657C232.5 155.026 226.705 147.421 218.316 145.187C216.686 144.765 215.057 144.523 213.367 144.523C210.409 144.523 207.633 145.429 205.098 146.696L211.254 123.64C215.238 108.732 206.365 93.3407 191.457 89.3571L134.661 74.1471C134.661 74.1471 134.902 73.8453 135.084 73.7246ZM206.305 163.657C206.305 159.009 210.711 155.689 215.177 156.897C218.799 157.862 221.153 161.604 220.127 165.528C219.1 169.149 215.238 171.503 211.495 170.477C208.417 169.632 206.305 166.855 206.305 163.717V163.657ZM12.6191 192.205L43.0391 78.6739C44.9705 71.5518 51.4287 66.8439 58.4301 66.8439C59.8183 66.8439 61.2065 67.025 62.5344 67.3871L188.258 101.066C196.768 103.36 201.778 112.112 199.545 120.562L169.125 234.154C168.038 238.258 165.383 241.698 161.701 243.811C158.019 245.923 153.734 246.466 149.63 245.38L23.8455 211.701C19.7413 210.614 16.3009 207.959 14.1281 204.277C12.0156 200.595 11.4723 196.31 12.5588 192.205H12.6191Z" fill="white"/>
<path d="M234.735 83.805C236.365 84.2275 238.055 84.4689 239.684 84.4689C248.134 84.4689 255.86 78.8557 258.153 70.3454C259.481 65.4565 258.757 60.2658 256.222 55.8597C253.687 51.4536 249.522 48.2547 244.633 46.9269C243.004 46.5044 241.374 46.2629 239.684 46.2629C229.242 46.2629 220.611 54.7733 220.611 65.3961C220.611 74.0272 226.406 81.6321 234.795 83.8654L234.735 83.805ZM239.684 58.3343C240.288 58.3343 240.891 58.3947 241.495 58.5758C243.306 59.0586 244.814 60.2054 245.72 61.835C246.686 63.4647 246.927 65.3358 246.444 67.1465C245.478 70.8282 241.495 73.1218 237.813 72.0957C234.735 71.2507 232.622 68.4743 232.622 65.3358C232.622 61.4125 235.821 58.274 239.624 58.274L239.684 58.3343Z" fill="white"/>
<path d="M89.5804 165.951C94.8314 175.065 106.541 178.204 115.655 172.953C124.768 167.702 127.907 155.932 122.656 146.878C117.405 137.825 105.696 134.626 96.5818 139.877C87.5886 145.068 84.2689 156.717 89.5804 165.951ZM102.617 150.319C105.937 148.387 110.283 149.534 112.214 152.914C114.146 156.234 112.999 160.579 109.619 162.511C106.36 164.442 101.893 163.235 100.022 159.976C98.0907 156.596 99.2375 152.311 102.617 150.379V150.319Z" fill="white"/>
<path d="M159.707 147.481C168.761 142.23 172.02 130.521 166.709 121.407C163.329 115.492 156.991 111.87 150.171 111.87C146.851 111.87 143.532 112.776 140.635 114.405C131.641 119.596 128.322 131.185 133.633 140.48C138.884 149.594 150.593 152.732 159.707 147.481ZM146.61 124.847C147.696 124.244 148.903 123.882 150.111 123.882C152.585 123.882 154.939 125.209 156.207 127.382C158.138 130.702 156.991 135.048 153.611 136.979C150.292 138.91 145.946 137.764 144.015 134.444C142.083 131.064 143.29 126.779 146.55 124.847H146.61Z" fill="white"/>
<path d="M71.5874 198.363C80.7014 193.112 83.8399 181.402 78.5889 172.288C73.3982 163.295 61.7493 159.976 52.5146 165.287C43.4007 170.538 40.2622 182.247 45.5132 191.361C50.7643 200.475 62.4735 203.614 71.5874 198.363ZM58.5503 175.729C61.9303 173.797 66.2157 175.005 68.1471 178.324C70.0785 181.644 68.9317 185.989 65.5517 187.921C62.2925 189.792 57.8864 188.766 55.955 185.326C54.0236 182.006 55.1703 177.66 58.5503 175.729Z" fill="white"/>
<path d="M121.985 183.877C112.871 189.129 109.733 200.838 114.984 209.952C120.235 219.066 131.944 222.204 141.058 216.953C150.112 211.702 153.371 199.993 148.06 190.879C142.869 181.886 131.22 178.566 121.985 183.877ZM135.022 206.511C131.763 208.382 127.297 207.175 125.426 203.916C123.494 200.596 124.701 196.19 128.021 194.319C131.461 192.327 135.686 193.595 137.618 196.915C139.549 200.234 138.402 204.58 135.022 206.511Z" fill="white"/>
<path d="M90.2378 128.831C99.231 123.641 102.551 111.992 97.2393 102.757C92.0486 93.7036 80.3393 90.4443 71.165 95.7557C62.0511 101.007 58.9126 112.776 64.1636 121.83C69.4147 130.944 81.1843 134.082 90.2378 128.831ZM77.2007 106.197C80.5807 104.206 84.8661 105.473 86.7975 108.732C88.7289 112.112 87.5821 116.398 84.2021 118.329C80.8825 120.2 76.5368 119.114 74.6054 115.734C72.674 112.414 73.8207 108.069 77.2007 106.137V106.197Z" fill="white"/>
</svg>
