<svg width="359" height="359" viewBox="0 0 359 359" fill="none" xmlns="http://www.w3.org/2000/svg">
<path d="M77.6625 280.65H66.3854C35.2494 280.65 10 255.401 10 224.265C10 193.129 35.2494 167.88 66.3854 167.88H77.6625V280.65Z" stroke="white" stroke-width="20" stroke-miterlimit="10" stroke-linejoin="round"/>
<path d="M291.924 280.65H280.646V167.88H291.924C323.06 167.88 348.309 193.129 348.309 224.265C348.309 255.401 323.06 280.65 291.924 280.65Z" stroke="white" stroke-width="20" stroke-miterlimit="10" stroke-linejoin="round"/>
<path d="M55.1064 167.879V134.048C55.1064 65.5396 110.646 10 179.154 10C247.663 10 303.202 65.5396 303.202 134.048V167.879" stroke="white" stroke-width="20" stroke-miterlimit="10" stroke-linejoin="round"/>
<path d="M303.209 280.65V325.759C303.209 338.22 293.115 348.313 280.654 348.313H246.822" stroke="white" stroke-width="20" stroke-miterlimit="10" stroke-linejoin="round"/>
<path d="M201.709 348.312H224.263" stroke="white" stroke-width="20" stroke-miterlimit="10" stroke-linejoin="round"/>
</svg>
