<svg width="47" height="47" viewBox="0 0 47 47" fill="none" xmlns="http://www.w3.org/2000/svg">
<rect x="2" y="2" width="43" height="43" rx="9" stroke="white" stroke-width="4"/>
<path d="M33.0085 17.6237C31.8054 17.3674 30.7159 16.735 29.899 15.8188C29.082 14.9026 28.5802 13.7505 28.4668 12.5304V12.0012H24.3165V28.4055C24.314 29.1317 24.083 29.8389 23.6561 30.4276C23.2292 31.0164 22.6277 31.4571 21.9364 31.6879C21.245 31.9187 20.4984 31.9279 19.8014 31.7142C19.1045 31.5006 18.4923 31.0748 18.0509 30.4968C17.6026 29.9091 17.3539 29.1944 17.3409 28.4565C17.3279 27.7185 17.5513 26.9956 17.9786 26.3926C18.4059 25.7896 19.0149 25.3378 19.7174 25.1028C20.4199 24.8678 21.1793 24.8617 21.8855 25.0855V20.8861C20.3107 20.6692 18.7073 20.9481 17.2996 21.6836C15.8918 22.419 14.75 23.5744 14.034 24.9879C13.318 26.4015 13.0635 28.0027 13.3061 29.5674C13.5488 31.1321 14.2764 32.5822 15.3873 33.7148C16.4467 34.7943 17.805 35.535 19.2889 35.8422C20.7728 36.1495 22.315 36.0093 23.7186 35.4397C25.1222 34.8701 26.3235 33.8968 27.1692 32.6441C28.0149 31.3915 28.4667 29.9162 28.4668 28.4067V20.0246C30.144 21.2188 32.155 21.8592 34.2168 21.8555V17.7485C33.8108 17.749 33.4058 17.7071 33.0085 17.6237Z" fill="white"/>
<path d="M18.0509 30.4968C18.4923 31.0748 19.1045 31.5006 19.8014 31.7142C20.4984 31.9279 21.245 31.9187 21.9364 31.6879C22.6277 31.4571 23.2292 31.0164 23.6561 30.4276C24.083 29.8389 24.314 29.1317 24.3165 28.4055V12.0012H28.4668V12.5304C28.5802 13.7505 29.082 14.9026 29.899 15.8188C30.7159 16.735 31.8054 17.3674 33.0085 17.6237C33.4058 17.7071 33.8108 17.749 34.2168 17.7485V21.8555C32.155 21.8592 30.144 21.2188 28.4668 20.0246V28.4067C28.4667 29.9162 28.0149 31.3915 27.1692 32.6441C26.3235 33.8968 25.1222 34.8701 23.7186 35.4397C22.315 36.0093 20.7728 36.1495 19.2889 35.8422C17.805 35.535 16.4467 34.7943 15.3873 33.7148C14.2764 32.5822 13.5488 31.1321 13.3061 29.5674C13.0635 28.0027 13.318 26.4015 14.034 24.9879C14.75 23.5744 15.8918 22.419 17.2996 21.6836C18.7073 20.9481 20.3107 20.6692 21.8855 20.8861V25.0855C21.1793 24.8617 20.4199 24.8678 19.7174 25.1028C19.0149 25.3378 18.4059 25.7896 17.9786 26.3926C17.5513 26.9956 17.3279 27.7185 17.3409 28.4565C17.3539 29.1944 17.6026 29.9091 18.0509 30.4968ZM18.0509 30.4968L18.0485 30.4956" stroke="white"/>
</svg>
