<svg width="349" height="349" viewBox="0 0 349 349" fill="none" xmlns="http://www.w3.org/2000/svg">
<path d="M290.979 0H58.0212C25.977 0 0 25.977 0 58.0212V290.979C0 323.023 25.977 349 58.0212 349H290.979C323.023 349 349 323.023 349 290.979V58.0212C349 25.977 323.023 0 290.979 0Z" fill="black"/>
<path d="M283.275 145.946V99.4065C222.44 96.8377 220.483 41.5565 220.483 36.3619V35.9705H173.463V217.227C173.458 225.059 170.983 232.691 166.39 239.036C161.797 245.38 155.32 250.115 147.881 252.566C140.442 255.018 132.419 255.061 124.955 252.689C117.49 250.318 110.963 245.653 106.302 239.358C101.641 233.062 99.0848 225.458 98.9958 217.626C98.9067 209.794 101.29 202.133 105.806 195.733C110.322 189.334 116.741 184.521 124.15 181.981C131.559 179.44 139.581 179.301 147.074 181.582V133.583C143.472 133.121 139.844 132.89 136.212 132.89C119.532 132.89 103.226 137.836 89.3568 147.103C75.4877 156.37 64.678 169.542 58.2948 184.952C51.9115 200.363 50.2414 217.32 53.4955 233.68C56.7497 250.04 64.782 265.067 76.5767 276.862C88.3714 288.656 103.399 296.689 119.758 299.943C136.118 303.197 153.075 301.527 168.486 295.144C183.897 288.76 197.068 277.951 206.335 264.082C215.602 250.213 220.548 233.907 220.548 217.227C220.548 216.044 220.548 214.87 220.467 213.704V124.45C242.118 144.258 283.275 145.946 283.275 145.946Z" fill="#00F6EF"/>
<path d="M297.13 157.428V110.864C236.288 108.295 234.339 53.014 234.339 47.8194V47.428H187.318V228.684C187.315 236.517 184.841 244.15 180.249 250.495C175.658 256.841 169.182 261.578 161.743 264.03C154.304 266.483 146.28 266.527 138.815 264.157C131.349 261.786 124.821 257.121 120.16 250.826C115.498 244.532 112.941 236.927 112.851 229.094C112.762 221.262 115.144 213.601 119.66 207.201C124.176 200.801 130.595 195.988 138.005 193.447C145.414 190.906 153.436 190.766 160.929 193.048V145.041C157.318 144.588 153.682 144.368 150.043 144.38C133.362 144.385 117.058 149.336 103.191 158.608C89.3245 167.879 78.5187 181.054 72.1401 196.467C65.7616 211.88 64.0968 228.838 67.3564 245.197C70.6159 261.556 78.6534 276.581 90.4523 288.372C102.251 300.163 117.282 308.19 133.643 311.439C150.004 314.687 166.961 313.011 182.37 306.622C197.778 300.233 210.946 289.418 220.208 275.546C229.47 261.673 234.41 245.365 234.404 228.684C234.404 227.502 234.404 226.327 234.322 225.161V135.907C255.973 155.715 297.13 157.428 297.13 157.428Z" fill="white"/>
<path d="M221.658 47.428C223.925 59.7743 230.547 79.0767 249.849 90.371C235.097 73.1889 234.355 51.0161 234.355 47.8194V47.428H221.658Z" fill="#FF004F"/>
<path d="M297.127 157.428V110.864C292.47 110.693 287.834 110.148 283.264 109.233V145.889C283.264 145.889 242.107 144.201 220.472 124.393V213.622C220.521 214.788 220.554 215.963 220.554 217.145C220.552 232.404 216.411 247.376 208.571 260.467C200.732 273.557 189.489 284.277 176.038 291.482C162.588 298.687 147.435 302.109 132.194 301.383C116.953 300.657 102.194 295.809 89.4902 287.358C101.174 299.424 116.194 307.726 132.626 311.201C149.058 314.675 166.153 313.164 181.721 306.861C197.288 300.558 210.619 289.749 220.005 275.821C229.39 261.893 234.403 245.479 234.401 228.684C234.401 227.502 234.401 226.327 234.319 225.161V135.907C255.97 155.715 297.127 157.428 297.127 157.428Z" fill="#FF004F"/>
<path d="M147.078 181.51C138.099 178.772 128.418 179.523 119.97 183.614C111.522 187.705 104.929 194.834 101.509 203.576C98.09 212.317 98.096 222.028 101.526 230.765C104.957 239.502 111.559 246.623 120.012 250.703C115.392 244.393 112.875 236.79 112.817 228.969C112.76 221.149 115.164 213.509 119.69 207.131C124.215 200.754 130.633 195.962 138.034 193.434C145.435 190.907 153.443 190.772 160.924 193.049V145.042C157.313 144.59 153.677 144.369 150.038 144.381C149.035 144.381 148.048 144.381 147.053 144.438L147.078 181.51Z" fill="#FF004F"/>
</svg>
