<svg width="342" height="256" viewBox="0 0 342 256" fill="none" xmlns="http://www.w3.org/2000/svg">
<path d="M337.612 55.2098C337.612 55.2098 334.286 30.1261 324.063 19.082C311.089 4.60526 296.559 4.51998 289.897 3.69913C242.17 1.27081e-06 170.586 0 170.586 0H170.426C170.426 0 98.8424 1.27081e-06 51.1269 3.69913C44.4642 4.51998 29.9448 4.60526 16.9606 19.082C6.74798 30.1261 3.4113 55.2098 3.4113 55.2098C3.4113 55.2098 0 84.6429 0 114.076V141.665C0 171.119 3.4113 200.542 3.4113 200.542C3.4113 200.542 6.73732 225.615 16.9606 236.638C29.9448 251.114 46.9693 250.677 54.5595 252.191C81.8392 254.984 170.512 255.848 170.512 255.848C170.512 255.848 242.17 255.72 289.897 252.063C296.559 251.21 311.089 251.125 324.063 236.648C334.275 225.626 337.612 200.553 337.612 200.553C337.612 200.553 341.023 171.119 341.023 141.676V114.087C341.023 84.6429 337.612 55.2098 337.612 55.2098Z" fill="#E02F2F"/>
<path d="M127.924 63.9619V191.886L234.527 127.924L127.924 63.9619Z" fill="white"/>
</svg>
